<?xml version="1.0" standalone="no"?>
<!DOCTYPE svg PUBLIC "-//W3C//DTD SVG 20010904//EN"
 "http://www.w3.org/TR/2001/REC-SVG-20010904/DTD/svg10.dtd">
<svg version="1.0" xmlns="http://www.w3.org/2000/svg"
 width="5000.000000pt" height="5000.000000pt" viewBox="0 0 5000.000000 5000.000000"
 preserveAspectRatio="xMidYMid meet">

<g transform="translate(0.000000,5000.000000) scale(0.100000,-0.100000)"
fill="#000000" stroke="none">
<path d="M24635 45689 c-1713 -40 -3409 -385 -4993 -1015 -1935 -770 -3672
-1950 -5100 -3464 -407 -431 -820 -933 -1162 -1410 -1338 -1868 -2171 -3985
-2449 -6230 -67 -535 -91 -905 -98 -1490 -10 -842 37 -1512 163 -2310 105
-668 244 -1243 541 -2240 644 -2166 1888 -4985 3626 -8220 1569 -2919 3505
-6135 5852 -9720 315 -482 1392 -2094 1696 -2540 492 -721 1109 -1613 1442
-2085 315 -446 541 -764 644 -907 102 -141 113 -161 113 -200 1 -41 1 -42 16
-23 15 20 15 20 35 -4 l19 -23 0 48 c0 48 5 55 318 489 2336 3234 4821 6960
6847 10270 2218 3623 3970 6882 5143 9566 975 2231 1575 4108 1787 5593 77
541 91 778 112 1971 19 1115 -118 2301 -396 3420 -520 2094 -1566 4075 -3019
5720 -1533 1735 -3486 3076 -5672 3895 -1730 649 -3568 954 -5465 909z m815
-4869 c1315 -53 2533 -360 3685 -930 696 -344 1293 -741 1900 -1264 195 -168
685 -658 855 -856 615 -713 1086 -1470 1436 -2310 780 -1866 851 -3966 199
-5880 -320 -938 -799 -1806 -1429 -2590 -344 -427 -800 -889 -1241 -1254
-1367 -1135 -3106 -1847 -4905 -2011 -452 -41 -1154 -46 -1560 -11 -891 77
-1664 248 -2466 547 -1733 644 -3242 1832 -4254 3349 -535 802 -917 1656
-1155 2585 -296 1150 -339 2345 -129 3534 242 1370 856 2706 1749 3806 360
444 853 937 1292 1292 1199 970 2632 1616 4159 1872 620 105 1254 146 1864
121z"/>
</g>
</svg>
